<svg viewBox="0 0 1100 620" xmlns="http://www.w3.org/2000/svg">
  <defs>
    <linearGradient id="bg" x1="0" y1="0" x2="1" y2="1">
      <stop offset="0%" stop-color="#0a0e1f"/>
      <stop offset="100%" stop-color="#0d1326"/>
    </linearGradient>
    <linearGradient id="borderGlow" x1="0" y1="0" x2="1" y2="1">
      <stop offset="0%" stop-color="#5ee7ff"/>
      <stop offset="100%" stop-color="#7c5cff"/>
    </linearGradient>
    <clipPath id="outer">
      <rect x="8" y="8" width="1084" height="604" rx="14"/>
    </clipPath>
    <clipPath id="scanClip">
      <rect x="1040" y="20" width="0" height="18">
        <animate attributeName="width"
          dur="2.6s" repeatCount="indefinite"
          calcMode="linear"
          keyTimes="0;0.269;0.5;0.769;1"
          values="0;68;68;0;0"/>
      </rect>
    </clipPath>
  </defs>

  <rect x="4" y="4" width="1092" height="612" rx="16" fill="none" stroke="url(#borderGlow)" stroke-width="1.5" opacity="0.55"/>
  <rect x="8" y="8" width="1084" height="604" rx="14" fill="url(#bg)"/>

  <g clip-path="url(#outer)">
    <!-- title bar -->
    <rect x="8" y="8" width="1084" height="40" fill="#101733"/>
    <line x1="8" y1="48" x2="1092" y2="48" stroke="#22284a" stroke-width="1"/>
    <circle cx="34" cy="28" r="6" fill="#ff5f57"/>
    <circle cx="54" cy="28" r="6" fill="#febc2e"/>
    <circle cx="74" cy="28" r="6" fill="#28c840"/>
    <text x="550" y="33" text-anchor="middle" font-family="SFMono-Regular, Menlo, Consolas, monospace" font-size="13" fill="#8b93b8">yasir@devOS ~ % ./profile.sh --live</text>

    <!-- animated typing/erasing SCANNING label -->
    <circle cx="1030" cy="28" r="4" fill="#ff5f57">
      <animate attributeName="opacity" values="1;0.15;1" dur="1s" repeatCount="indefinite"/>
    </circle>
    <text x="1042" y="32" font-family="SFMono-Regular, Menlo, Consolas, monospace" font-size="11" fill="#ff5f57" letter-spacing="1" clip-path="url(#scanClip)">SCANNING</text>

    <!-- left panel: VISUAL.MAP (generated from the uploaded photo) -->
    <text x="40" y="82" font-family="SFMono-Regular, Menlo, Consolas, monospace" font-size="12" fill="#5ee7ff" letter-spacing="2">VISUAL.MAP</text>
    <line x1="40" y1="92" x2="470" y2="92" stroke="#22284a" stroke-width="1"/>
    <g>
__DOTS__
    </g>

    <!-- divider -->
    <line x1="500" y1="60" x2="500" y2="600" stroke="#22284a" stroke-width="1"/>

    <!-- right panel: SYSTEM.INFO -->
    <text x="530" y="82" font-family="SFMono-Regular, Menlo, Consolas, monospace" font-size="12" fill="#5ee7ff" letter-spacing="2">SYSTEM.INFO</text>
    <line x1="530" y1="92" x2="1060" y2="92" stroke="#22284a" stroke-width="1"/>
    <text x="530" y="118" font-family="SFMono-Regular, Menlo, Consolas, monospace" font-size="18" font-weight="bold" fill="#a78bfa">yasir@devOS</text>
    <line x1="530" y1="128" x2="1060" y2="128" stroke="#1a2040" stroke-width="1"/>

    <!-- info rows -->
    <g font-family="SFMono-Regular, Menlo, Consolas, monospace" font-size="13.5">
      <text x="530" y="155" fill="#5ee7ff">I am</text>
      <text x="640" y="155" fill="#e6e9f5">Muhammad Yasir Ishfaq</text>

      <text x="530" y="180" fill="#5ee7ff">Role</text>
      <text x="640" y="180" fill="#e6e9f5">SE Undergraduate · ML &amp; Data Enthusiast</text>

      <text x="530" y="205" fill="#5ee7ff">Origin</text>
      <text x="640" y="205" fill="#e6e9f5">Sindh, Pakistan</text>

      <text x="530" y="230" fill="#5ee7ff">Education</text>
      <text x="640" y="230" fill="#e6e9f5">BS Software Engineering, SMIU — 6th Semester</text>

      <text x="530" y="255" fill="#5ee7ff">Focus</text>
      <text x="640" y="255" fill="#e6e9f5">Text/Email/News Classification, Applied ML</text>

      <text x="530" y="280" fill="#5ee7ff">Stats</text>
      <text x="640" y="280" fill="#e6e9f5">6+ shipped projects across ML, Java &amp; JS</text>

      <text x="530" y="325" fill="#a78bfa">Tech Stack</text>
      <line x1="530" y1="333" x2="1060" y2="333" stroke="#1a2040" stroke-width="1"/>

      <text x="530" y="358" fill="#5ee7ff">Core.ML</text>
      <text x="640" y="358" fill="#e6e9f5">Python, Scikit-Learn, Pandas, NLP</text>

      <text x="530" y="383" fill="#5ee7ff">Core.Lang</text>
      <text x="640" y="383" fill="#e6e9f5">Python, Java, JavaScript</text>

      <text x="530" y="408" fill="#5ee7ff">Core.Web</text>
      <text x="640" y="408" fill="#e6e9f5">HTML, CSS, JavaScript</text>

      <text x="530" y="433" fill="#5ee7ff">Core.Tools</text>
      <text x="640" y="433" fill="#e6e9f5">Git, GitHub, Jupyter, VS Code</text>

      <text x="530" y="478" fill="#a78bfa">Contact</text>
      <line x1="530" y1="486" x2="1060" y2="486" stroke="#1a2040" stroke-width="1"/>

      <text x="530" y="511" fill="#5ee7ff">Grid.Mail</text>
      <text x="640" y="511" fill="#e6e9f5">yasirjadoon95@gmail.com</text>

      <text x="530" y="536" fill="#5ee7ff">Grid.Hub</text>
      <text x="640" y="536" fill="#e6e9f5">github.com/yasirx9</text>
    </g>

    <rect x="530" y="565" width="10" height="18" fill="#5ee7ff" opacity="0.85">
      <animate attributeName="opacity" values="0.85;0.1;0.85" dur="1.2s" repeatCount="indefinite"/>
    </rect>

    <line x1="8" y1="595" x2="1092" y2="595" stroke="#22284a" stroke-width="1"/>
  </g>
</svg>
